<?xml version="1.0" encoding="utf-8"?>
<!-- Generator: Adobe Illustrator 25.2.3, SVG Export Plug-In . SVG Version: 6.00 Build 0)  -->
<svg version="1.1" id="Calque_1" xmlns="http://www.w3.org/2000/svg" xmlns:xlink="http://www.w3.org/1999/xlink" x="0px" y="0px"
	 viewBox="0 0 629 850.39" style="enable-background:new 0 0 629 850.39;" xml:space="preserve">
<style type="text/css">
	.st0{fill:#1D1D1B;}
</style>
<g>
	<g>
		<path class="st0" d="M614.62,317.38c0-79.16-70.28-143.57-156.76-143.78C451.25,88.89,387.2,17.44,314.68,17.44
			c-79.15,0-143.57,70.28-143.78,156.75c-84.71,6.62-156.17,70.66-156.17,143.18c0,79.16,70.28,143.57,156.76,143.78
			c6.62,84.71,70.66,156.16,143.18,156.16c79.16,0,143.59-70.3,143.78-156.79C543.23,453.69,614.62,389.75,614.62,317.38z
			 M314.68,46.25c56.9,0,108.97,60.42,114.46,129.72c-67.82,11.33-120.58,62.58-127.97,126.08
			c-57.05-7.49-101.47-61.77-101.47-127.44C199.71,103.84,251.29,46.25,314.68,46.25z M43.55,317.38
			c0-56.9,60.42-108.97,129.72-114.46c11.33,67.82,62.58,120.58,126.08,127.97c-7.49,57.05-61.77,101.47-127.45,101.47
			C101.13,432.35,43.55,380.78,43.55,317.38z M314.68,588.51c-56.9,0-108.97-60.42-114.46-129.72
			c67.82-11.33,120.58-62.58,127.97-126.09c57.05,7.49,101.47,61.77,101.47,127.45C429.65,530.92,378.08,588.51,314.68,588.51z
			 M456.08,431.81c-11.35-67.8-62.59-120.55-126.08-127.94c7.49-57.05,61.77-101.47,127.45-101.47
			c70.78,0,128.36,51.58,128.36,114.97C585.81,374.14,525.44,426.1,456.08,431.81z"/>
		<path class="st0" d="M314.68,618.76c-72.59,0-137.18-69.93-144.51-156.17C83.55,461.73,13.3,396.84,13.3,317.38
			c0-72.59,69.93-137.18,156.17-144.51C170.34,86.25,235.22,16,314.68,16c72.59,0,137.18,69.93,144.51,156.17
			c86.62,0.86,156.87,65.75,156.87,145.21c0,72.35-69.93,136.92-156.17,144.48C459.05,548.49,394.16,618.76,314.68,618.76z
			 M314.68,18.88c-78.27,0-142.13,69.68-142.33,155.32l-0.01,1.33l-1.32,0.1C85.64,182.3,16.18,245.89,16.18,317.38
			c0,78.28,69.68,142.13,155.32,142.34l1.33,0l0.1,1.33c6.67,85.38,70.26,154.84,141.75,154.84c78.3,0,142.15-69.69,142.34-155.35
			l0.01-1.33l1.32-0.11c85.38-6.89,154.84-70.46,154.84-141.71c0-78.28-69.68-142.13-155.32-142.34l-1.33,0l-0.1-1.33
			C449.76,88.34,386.17,18.88,314.68,18.88z M314.68,589.95c-57.19,0-110.27-60.01-115.9-131.05l-0.11-1.32l1.31-0.22
			c67.4-11.26,119.54-62.6,126.78-124.83l0.17-1.45l1.45,0.19c58.56,7.69,102.72,63.09,102.72,128.88
			C431.09,531.72,378.87,589.95,314.68,589.95z M201.76,459.98c6.06,69.02,57.52,127.08,112.92,127.08
			c62.6,0,113.53-56.93,113.53-126.92c0-63.8-42.36-117.6-98.77-125.82C321.46,396.77,269.26,448.16,201.76,459.98z M171.91,433.8
			c-71.57,0-129.8-52.22-129.8-116.42c0-57.19,60.01-110.27,131.05-115.9l1.32-0.11l0.21,1.31c11.27,67.4,62.6,119.54,124.83,126.77
			l1.45,0.17l-0.19,1.45C293.1,389.63,237.69,433.8,171.91,433.8z M172.08,204.46c-69.02,6.06-127.08,57.53-127.08,112.92
			c0,62.6,56.93,113.53,126.92,113.53c63.8,0,117.6-42.36,125.82-98.78C235.29,324.16,183.9,271.96,172.08,204.46z M454.88,433.36
			l-0.21-1.31c-11.28-67.39-62.61-119.5-124.83-126.74l-1.45-0.17l0.19-1.45c7.69-58.56,63.09-102.72,128.87-102.72
			c71.57,0,129.8,52.22,129.8,116.41c0,56.96-60.01,110.02-131.05,115.87L454.88,433.36z M331.63,302.62
			c62.42,7.97,113.81,60.16,125.65,127.64c69.03-6.27,127.09-57.71,127.09-112.88c0-62.6-56.93-113.53-126.92-113.53
			C393.65,203.85,339.85,246.21,331.63,302.62z M302.43,303.68l-1.45-0.19c-58.56-7.69-102.72-63.09-102.72-128.87
			c0-71.57,52.22-129.8,116.41-129.8c57.19,0,110.27,60.01,115.9,131.05l0.11,1.32l-1.31,0.22
			c-67.4,11.26-119.54,62.6-126.78,124.83L302.43,303.68z M314.68,47.69c-62.6,0-113.53,56.93-113.53,126.92
			c0,63.8,42.36,117.6,98.77,125.81c7.98-62.44,60.18-113.83,127.68-125.65C421.54,105.76,370.08,47.69,314.68,47.69z"/>
	</g>
	<g>
		<g>
			<path class="st0" d="M128.24,688.34v22.2H84.67v120.95H56.05V710.54H12.27v-22.2H128.24z"/>
			<path class="st0" d="M86.11,832.93H54.6V711.98H10.83V686.9h118.85v25.08H86.11V832.93z M57.49,830.04h25.75V709.1h43.56v-19.32
				H13.71v19.32h43.78V830.04z"/>
		</g>
		<g>
			<path class="st0" d="M134.67,831.48V729.83h22.82l2.49,15.97h0.83c4.56-5.94,9.34-10.41,14.32-13.38
				c4.98-2.97,10.44-4.53,16.39-4.67l4.36,0.41l-2.28,23.86c-1.38-0.28-3.11-0.41-5.19-0.41c-4.7,0.28-9.26,1.69-13.69,4.25
				c-4.42,2.56-8.3,5.84-11.62,9.85v65.76H134.67z"/>
			<path class="st0" d="M164.53,832.93h-31.3V728.39h25.49l2.31,14.81c4.25-5.22,8.74-9.26,13.35-12.01
				c5.17-3.08,10.92-4.72,17.09-4.87l5.96,0.56l-2.57,26.88l-1.56-0.31c-1.28-0.26-2.94-0.39-4.91-0.39
				c-4.37,0.26-8.76,1.63-12.97,4.06c-4.11,2.38-7.77,5.45-10.9,9.13V832.93z M136.11,830.04h25.54V765.2l0.33-0.4
				c3.41-4.12,7.45-7.55,12-10.18c4.6-2.66,9.42-4.15,14.33-4.44c0.02,0,0.03,0,0.06,0c1.48,0,2.79,0.06,3.93,0.2l2-20.91
				l-2.92-0.28c-5.5,0.14-10.78,1.64-15.52,4.47c-4.79,2.86-9.48,7.24-13.91,13.02l-0.43,0.56h-2.77l-2.49-15.97h-20.15V830.04z"/>
		</g>
		<g>
			<path class="st0" d="M286.53,804.1l7.47,18.26c-4.98,3.46-11.06,6.19-18.26,8.19c-7.19,2-14.45,3.01-21.78,3.01
				c-6.22,0-12.45-0.9-18.67-2.7c-6.22-1.8-11.72-4.88-16.49-9.23c-4.77-4.36-8.61-9.85-11.51-16.49
				c-2.9-6.64-4.36-14.45-4.36-23.44c0-7.88,1.14-15.14,3.42-21.78c2.28-6.64,5.67-12.31,10.16-17.01c4.5-4.7,10.06-8.37,16.7-10.99
				c6.63-2.63,14.11-3.94,22.4-3.94c11.2,0,20.29,2.84,27.28,8.51c6.98,5.67,10.47,12.86,10.47,21.57c0,5.53-1.66,10.55-4.97,15.04
				c-3.32,4.49-7.88,8.26-13.69,11.31c-5.81,3.04-12.56,5.36-20.23,6.95c-7.68,1.59-15.73,2.39-24.17,2.39
				c1.1,5.81,3.97,10.37,8.61,13.69c4.63,3.32,10.54,4.98,17.73,4.98C266.2,812.4,276.16,809.63,286.53,804.1z M253.13,747.88
				c-3.88,0-7.37,0.8-10.48,2.38c-3.11,1.59-5.53,3.57-7.26,5.91c-1.73,2.35-3.15,5.15-4.25,8.4s-1.66,7.16-1.66,11.72
				c11.62,0.14,20.92-1.35,27.9-4.46c6.98-3.11,10.48-7.29,10.48-12.55c0-3.46-1.32-6.22-3.94-8.3
				C261.29,748.92,257.69,747.88,253.13,747.88z"/>
			<path class="st0" d="M253.95,835c-6.33,0-12.74-0.93-19.07-2.75c-6.4-1.85-12.14-5.06-17.06-9.55
				c-4.9-4.47-8.89-10.18-11.86-16.98c-2.97-6.79-4.47-14.87-4.47-24.02c0-8.02,1.18-15.5,3.5-22.25c2.34-6.8,5.86-12.7,10.48-17.54
				c4.63-4.83,10.42-8.65,17.21-11.34c6.77-2.68,14.49-4.04,22.93-4.04c11.49,0,20.97,2.97,28.19,8.83
				c7.3,5.94,11.01,13.57,11.01,22.69c0,5.82-1.77,11.17-5.26,15.9c-3.44,4.65-8.21,8.6-14.18,11.73
				c-5.91,3.09-12.85,5.48-20.61,7.08c-7.19,1.49-14.81,2.3-22.66,2.41c1.23,4.66,3.75,8.3,7.65,11.09
				c4.36,3.12,10.05,4.71,16.89,4.71c9.26,0,19.09-2.74,29.2-8.13l1.41-0.75l8.51,20.8l-0.95,0.66c-5.09,3.53-11.38,6.36-18.69,8.4
				C268.83,833.97,261.38,835,253.95,835z M255.61,729.41c-8.08,0-15.44,1.29-21.87,3.84c-6.41,2.54-11.86,6.12-16.19,10.65
				c-4.33,4.53-7.64,10.08-9.84,16.48c-2.22,6.45-3.34,13.62-3.34,21.31c0,8.75,1.42,16.44,4.24,22.87
				c2.81,6.42,6.56,11.81,11.17,16c4.59,4.19,9.94,7.19,15.91,8.91c13.25,3.82,26.67,3.31,39.67-0.32
				c6.54-1.82,12.21-4.29,16.87-7.34l-6.43-15.71c-10.04,5.13-19.84,7.73-29.14,7.73c-7.46,0-13.71-1.76-18.57-5.25
				c-4.92-3.53-8.02-8.44-9.19-14.59l-0.32-1.71h1.74c8.29,0,16.33-0.79,23.87-2.36c7.5-1.55,14.18-3.85,19.85-6.82
				c5.58-2.92,10.03-6.58,13.2-10.88c3.11-4.22,4.69-9,4.69-14.19c0-8.33-3.25-15.02-9.94-20.46
				C275.29,732.16,266.42,729.41,255.61,729.41z M230.94,777.75c-0.49,0-0.98,0-1.48-0.01l-1.42-0.02v-1.42
				c0-4.7,0.59-8.8,1.74-12.18c1.15-3.39,2.66-6.35,4.46-8.79c1.85-2.52,4.46-4.65,7.76-6.34c3.31-1.69,7.06-2.54,11.14-2.54
				c4.88,0,8.81,1.15,11.68,3.42c2.98,2.36,4.49,5.53,4.49,9.43c0,5.85-3.82,10.52-11.33,13.87
				C251.12,776.21,242.03,777.75,230.94,777.75z M230.93,774.87c0.01,0,0.01,0,0.02,0c10.68,0,19.37-1.46,25.84-4.34
				c6.48-2.88,9.62-6.56,9.62-11.23c0-3.02-1.11-5.36-3.39-7.17c-2.35-1.86-5.68-2.8-9.89-2.8c-3.62,0-6.93,0.75-9.83,2.23
				c-2.89,1.48-5.17,3.33-6.75,5.48c-1.63,2.21-2.99,4.91-4.05,8.01C231.56,767.79,231.04,771.08,230.93,774.87z"/>
		</g>
		<g>
			<path class="st0" d="M340.47,833.15c-9.69,0-17.05-2.97-22.09-8.92c-5.05-5.95-7.57-14.87-7.57-26.76l0.42-115.35h28.01v108.71
				c0,7.88,0.93,13.17,2.8,15.87c1.87,2.7,5.63,4.04,11.31,4.04l6.43-0.41l2.9,18.88C356.44,831.83,349.04,833.15,340.47,833.15z"/>
			<path class="st0" d="M340.47,834.59c-10.08,0-17.88-3.17-23.19-9.43c-5.26-6.18-7.92-15.5-7.92-27.69l0.42-116.79h30.88v110.15
				c0,7.55,0.86,12.62,2.54,15.05c1.58,2.27,4.98,3.42,10.12,3.42l7.65-0.5l3.28,21.29l-1.04,0.44
				C356.84,833.22,349.18,834.59,340.47,834.59z M312.65,683.56l-0.41,113.91c0,11.49,2.43,20.18,7.23,25.82
				c4.74,5.58,11.8,8.41,21,8.41c7.86,0,14.78-1.15,20.6-3.41l-2.53-16.45l-5.12,0.33c-0.01,0-0.01,0-0.02,0
				c-6.22,0-10.42-1.57-12.56-4.66c-2.06-2.97-3.06-8.43-3.06-16.69V683.56H312.65z"/>
		</g>
		<g>
			<path class="st0" d="M410.38,833.15c-9.69,0-17.05-2.97-22.09-8.92c-5.05-5.95-7.57-14.87-7.57-26.76l0.42-115.35h28.01v108.71
				c0,7.88,0.93,13.17,2.8,15.87c1.87,2.7,5.63,4.04,11.31,4.04l6.43-0.41l2.9,18.88C426.35,831.83,418.95,833.15,410.38,833.15z"/>
			<path class="st0" d="M410.37,834.59c-10.08,0-17.88-3.17-23.19-9.43c-5.26-6.18-7.92-15.5-7.92-27.69l0.42-116.79h30.88v110.15
				c0,7.55,0.86,12.62,2.54,15.05c1.58,2.27,4.98,3.42,10.12,3.42l7.65-0.5l3.28,21.29l-1.04,0.44
				C426.75,833.22,419.09,834.59,410.37,834.59z M382.55,683.56l-0.41,113.91c0,11.49,2.43,20.18,7.23,25.82
				c4.74,5.58,11.8,8.41,21,8.41c7.86,0,14.78-1.15,20.6-3.41l-2.53-16.45l-5.12,0.33c-0.01,0-0.01,0-0.02,0
				c-6.22,0-10.42-1.57-12.56-4.66c-2.06-2.97-3.06-8.43-3.06-16.69V683.56H382.55z"/>
		</g>
		<g>
			<path class="st0" d="M493.15,727.76c7.33,0,14.14,1.24,20.43,3.73c6.29,2.49,11.72,6.09,16.29,10.79
				c4.56,4.7,8.09,10.34,10.58,16.91c2.49,6.57,3.8,13.66,3.94,21.26c0,7.75-1.24,14.94-3.73,21.58
				c-2.49,6.64-6.02,12.27-10.58,16.91c-4.56,4.64-9.99,8.23-16.29,10.79c-6.3,2.56-13.17,3.84-20.64,3.84s-14.38-1.24-20.75-3.73
				c-6.36-2.49-11.82-6.08-16.39-10.79c-4.56-4.7-8.13-10.34-10.68-16.91c-2.56-6.56-3.84-13.66-3.84-21.26
				c0-7.74,1.24-14.94,3.73-21.57c2.49-6.64,6.05-12.27,10.69-16.91c4.63-4.63,10.13-8.23,16.49-10.79
				C478.76,729.04,485.68,727.76,493.15,727.76z M493.15,748.71c-5.26,0-9.75,1.66-13.48,4.98c-3.74,3.32-6.33,7.54-7.78,12.65
				c-1.45,5.12-2.18,9.89-2.18,14.32c0,9.13,2.11,16.73,6.33,22.82c4.22,6.09,9.92,9.13,17.11,9.13c3.32,0,6.78-0.97,10.37-2.9
				c3.6-1.94,6.64-5.53,9.13-10.79c2.49-5.26,3.74-11.34,3.74-18.26c0-4.43-0.73-9.16-2.18-14.21c-1.46-5.05-4.05-9.23-7.78-12.55
				C502.69,750.58,498.26,748.85,493.15,748.71z"/>
			<path class="st0" d="M493.14,835c-7.61,0-14.77-1.29-21.27-3.83c-6.53-2.56-12.22-6.3-16.9-11.13
				c-4.68-4.82-8.37-10.67-10.99-17.39c-2.61-6.69-3.93-14.02-3.93-21.78c0-7.88,1.29-15.31,3.82-22.08
				c2.55-6.81,6.26-12.67,11.02-17.42c4.74-4.75,10.46-8.48,16.97-11.11c6.51-2.62,13.68-3.94,21.29-3.94
				c7.47,0,14.53,1.29,20.96,3.84c6.45,2.55,12.1,6.3,16.79,11.12c4.67,4.82,8.34,10.67,10.89,17.4c2.53,6.69,3.89,14.01,4.04,21.75
				c0,7.91-1.29,15.34-3.82,22.11c-2.55,6.8-6.22,12.66-10.91,17.41c-4.67,4.75-10.32,8.49-16.77,11.11
				C507.88,833.67,500.76,835,493.14,835z M493.14,729.2c-7.25,0-14.05,1.26-20.21,3.73c-6.15,2.48-11.54,6-16,10.47
				c-4.46,4.46-7.95,9.97-10.35,16.4c-2.41,6.44-3.64,13.53-3.64,21.07c0,7.4,1.26,14.38,3.74,20.74
				c2.48,6.36,5.97,11.89,10.38,16.43c4.39,4.53,9.74,8.04,15.88,10.45c6.17,2.41,12.97,3.64,20.23,3.64c7.24,0,14-1.25,20.1-3.73
				c6.08-2.48,11.4-6,15.8-10.46c4.39-4.46,7.84-9.98,10.25-16.4c2.41-6.45,3.64-13.53,3.64-21.07c-0.14-7.38-1.43-14.38-3.84-20.75
				c-2.41-6.36-5.87-11.88-10.27-16.41c-4.4-4.53-9.71-8.05-15.78-10.45C506.95,730.42,500.26,729.2,493.14,729.2z M493.14,814.05
				c-7.66,0-13.82-3.28-18.3-9.75c-4.37-6.3-6.59-14.26-6.59-23.64c0-4.54,0.75-9.49,2.23-14.71c1.52-5.36,4.28-9.85,8.21-13.34
				c3.98-3.54,8.84-5.34,14.44-5.34h0.04c5.45,0.15,10.22,2.01,14.19,5.55c3.92,3.48,6.68,7.93,8.21,13.22
				c1.48,5.16,2.23,10.07,2.23,14.61c0,7.09-1.31,13.44-3.88,18.87c-2.61,5.52-5.89,9.36-9.75,11.44
				C500.41,813.01,496.69,814.05,493.14,814.05z M493.13,750.15c-4.94,0-9.03,1.51-12.51,4.61c-3.51,3.12-5.98,7.15-7.36,11.97
				c-1.41,4.97-2.12,9.65-2.12,13.92c0,8.78,2.04,16.19,6.07,22c3.97,5.73,9.18,8.51,15.93,8.51c3.06,0,6.32-0.92,9.69-2.73
				c3.3-1.78,6.17-5.19,8.51-10.14c2.39-5.05,3.6-10.98,3.6-17.64c0-4.27-0.71-8.92-2.12-13.82c-1.38-4.76-3.85-8.76-7.36-11.87
				C502.01,751.91,497.87,750.28,493.13,750.15z"/>
		</g>
		<g>
			<path class="st0" d="M594.39,833.15c-9.69,0-17.05-2.97-22.09-8.92c-5.05-5.95-7.57-14.87-7.57-26.76l0.42-115.35h28.01v108.71
				c0,7.88,0.93,13.17,2.8,15.87c1.87,2.7,5.63,4.04,11.31,4.04l6.43-0.41l2.9,18.88C610.36,831.83,602.96,833.15,594.39,833.15z"/>
			<path class="st0" d="M594.38,834.59c-10.08,0-17.88-3.17-23.19-9.43c-5.26-6.18-7.92-15.5-7.92-27.69l0.42-116.79h30.88v110.15
				c0,7.55,0.86,12.62,2.54,15.05c1.58,2.27,4.98,3.42,10.12,3.42l7.65-0.5l3.28,21.29l-1.04,0.44
				C610.76,833.22,603.1,834.59,594.38,834.59z M566.57,683.56l-0.41,113.91c0,11.49,2.43,20.18,7.23,25.82
				c4.74,5.58,11.8,8.41,21,8.41c7.86,0,14.78-1.15,20.6-3.41l-2.53-16.45l-5.12,0.33c-0.01,0-0.01,0-0.02,0
				c-6.22,0-10.42-1.57-12.56-4.66c-2.06-2.97-3.06-8.43-3.06-16.69V683.56H566.57z"/>
		</g>
	</g>
</g>
</svg>
